<svg width="1024" height="1024" viewBox="0 0 1024 1024" fill="none" xmlns="http://www.w3.org/2000/svg">
<rect x="54" y="542" width="916" height="10" fill="black"/>
<path d="M187.557 517C184.178 517 182.488 515.311 182.488 511.932V397.387C182.488 394.008 184.178 392.318 187.557 392.318H201.072C204.451 392.318 206.141 394.008 206.141 397.387V431.514C206.141 433.766 206.028 436.019 205.803 438.271H206.31C208.9 433.823 212.194 430.782 216.193 429.148C220.191 427.459 225.006 426.614 230.638 426.614C239.423 426.614 246.688 429.374 252.432 434.893C258.176 440.411 261.048 450.492 261.048 465.134V511.932C261.048 515.311 259.358 517 255.979 517H242.464C239.085 517 237.396 515.311 237.396 511.932V471.216C237.396 458.939 236.551 451.196 234.861 447.986C233.172 444.776 229.54 443.171 223.964 443.171C218.051 443.171 213.602 445.48 210.618 450.098C207.633 454.659 206.141 464.176 206.141 478.649V511.932C206.141 515.311 204.451 517 201.072 517H187.557ZM277.773 434.893C276.535 430.5 277.464 428.304 280.561 428.304H294.837C297.54 428.304 299.229 429.74 299.905 432.612L311.309 482.113C311.985 484.985 312.576 487.744 313.083 490.391C313.59 493.038 313.9 495.206 314.012 496.896H314.519C314.632 495.206 314.941 493.01 315.448 490.307C315.955 487.547 316.546 484.816 317.222 482.113L329.217 432.612C329.893 429.74 331.583 428.304 334.286 428.304H349.66C352.363 428.304 354.052 429.74 354.728 432.612L366.723 482.113C367.399 484.816 367.99 487.547 368.497 490.307C369.004 493.01 369.314 495.206 369.426 496.896H369.933C370.046 495.206 370.355 493.038 370.862 490.391C371.369 487.744 371.96 484.985 372.636 482.113L384.04 432.612C384.716 429.74 386.405 428.304 389.108 428.304H403.384C406.482 428.304 407.411 430.5 406.172 434.893L384.209 511.34C383.139 515.113 381.083 517 378.042 517H362.753C359.543 517 357.487 515.113 356.586 511.34L344.338 461.248C343.606 458.376 343.071 456.067 342.733 454.321C342.451 452.576 342.254 450.633 342.142 448.493H341.804C341.691 450.633 341.466 452.576 341.128 454.321C340.846 456.067 340.34 458.376 339.607 461.248L327.359 511.34C326.458 515.113 324.402 517 321.192 517H305.903C302.862 517 300.806 515.113 299.736 511.34L277.773 434.893ZM416.984 517C413.042 517 411.071 514.888 411.071 510.665V499.345C411.071 495.122 413.042 493.01 416.984 493.01H429.824C433.766 493.01 435.737 495.122 435.737 499.345V510.665C435.737 514.888 433.766 517 429.824 517H416.984ZM461.333 511.087C458.573 509.116 457.813 507.004 459.052 504.751L463.36 496.896C464.88 494.08 467.246 493.742 470.456 495.882C473.666 498.022 477.439 499.599 481.775 500.612C486.167 501.626 490.166 502.133 493.77 502.133C496.304 502.133 498.669 501.879 500.866 501.373C503.062 500.866 504.92 499.88 506.441 498.416C507.961 496.952 508.722 494.812 508.722 491.996C508.722 490.307 508.271 488.871 507.37 487.688C506.469 486.505 505.315 485.604 503.907 484.985C502.499 484.365 501.007 483.859 499.43 483.464C497.346 482.958 494.333 482.113 490.391 480.93C486.505 479.748 482.76 478.368 479.156 476.791C476.172 475.496 473.243 473.694 470.371 471.385C467.555 469.02 465.472 466.401 464.12 463.529C462.825 460.657 462.177 457.109 462.177 452.885C462.177 447.197 463.81 442.214 467.077 437.934C470.399 433.654 474.679 430.697 479.917 429.064C485.154 427.431 491.686 426.614 499.514 426.614C504.808 426.614 509.961 427.375 514.973 428.895C519.985 430.416 523.561 431.852 525.701 433.203C529.08 435.343 529.924 437.624 528.235 440.045L523.082 447.563C521.505 449.816 518.971 449.985 515.479 448.07C512.833 446.606 510.214 445.424 507.624 444.522C505.089 443.621 502.245 443.171 499.092 443.171C496.952 443.171 494.896 443.396 492.925 443.847C490.954 444.297 489.265 445.142 487.857 446.381C486.505 447.62 485.83 449.253 485.83 451.28C485.83 453.42 486.449 455.11 487.688 456.349C488.983 457.531 490.447 458.404 492.081 458.967C493.77 459.53 495.375 460.065 496.896 460.572C500.049 461.586 503.231 462.571 506.441 463.529C509.651 464.43 512.917 465.528 516.24 466.823C519.112 467.95 521.899 469.555 524.603 471.638C527.306 473.722 529.277 476.369 530.516 479.579C531.755 482.789 532.374 486.449 532.374 490.56C532.374 496.023 530.741 501.091 527.475 505.765C524.208 510.439 519.9 513.762 514.55 515.733C509.2 517.704 502.978 518.689 495.882 518.689C487.941 518.689 481.184 518.126 475.608 517C470.033 515.874 465.275 513.903 461.333 511.087ZM543.355 472.652C543.355 458.292 546.96 447.028 554.168 438.863C561.376 430.697 572.442 426.614 587.366 426.614C596.095 426.614 602.881 427.769 607.724 430.078C612.567 432.387 616.452 435.765 619.381 440.214C621.127 442.861 620.845 444.945 618.536 446.465L609.582 452.378C607.048 454.068 604.823 453.42 602.909 450.436C601.951 448.971 600.121 447.395 597.418 445.705C594.715 444.016 591.364 443.171 587.366 443.171C581.002 443.171 576.243 445.424 573.09 449.929C569.936 454.378 568.359 461.952 568.359 472.652C568.359 483.352 569.936 490.954 573.09 495.459C576.243 499.908 581.002 502.133 587.366 502.133C591.927 502.133 595.616 501.175 598.432 499.261C601.247 497.346 603.894 494.868 606.372 491.827C608.512 489.237 610.765 488.871 613.13 490.729L620.986 496.896C623.351 498.754 623.492 501.232 621.408 504.329C619.212 507.595 615.467 510.805 610.173 513.959C604.936 517.113 597.333 518.689 587.366 518.689C572.442 518.689 561.376 514.607 554.168 506.441C546.96 498.275 543.355 487.012 543.355 472.652ZM644.892 517C641.513 517 639.823 515.311 639.823 511.932V397.387C639.823 394.008 641.513 392.318 644.892 392.318H658.407C661.786 392.318 663.476 394.008 663.476 397.387V431.514C663.476 433.766 663.363 436.019 663.138 438.271H663.645C666.235 433.823 669.529 430.782 673.528 429.148C677.526 427.459 682.341 426.614 687.973 426.614C696.758 426.614 704.022 429.374 709.767 434.893C715.511 440.411 718.383 450.492 718.383 465.134V511.932C718.383 515.311 716.693 517 713.314 517H699.799C696.42 517 694.73 515.311 694.73 511.932V471.216C694.73 458.939 693.886 451.196 692.196 447.986C690.507 444.776 686.875 443.171 681.299 443.171C675.386 443.171 670.937 445.48 667.953 450.098C664.968 454.659 663.476 464.176 663.476 478.649V511.932C663.476 515.311 661.786 517 658.407 517H644.892ZM741.021 480.17V433.372C741.021 429.993 742.711 428.304 746.09 428.304H759.605C762.984 428.304 764.674 429.993 764.674 433.372V474.088C764.674 486.365 765.519 494.108 767.208 497.318C768.897 500.528 772.445 502.133 777.852 502.133C783.596 502.133 787.96 499.852 790.945 495.291C793.93 490.673 795.422 481.127 795.422 466.654V433.372C795.422 429.993 797.111 428.304 800.49 428.304H814.006C817.385 428.304 819.074 429.993 819.074 433.372V511.932C819.074 515.311 817.385 517 814.006 517H800.659C797.28 517 795.591 515.311 795.591 511.932V507.032H795.253C792.662 511.481 789.368 514.55 785.37 516.24C781.371 517.873 776.641 518.689 771.178 518.689C762.562 518.689 755.382 515.93 749.638 510.411C743.894 504.892 741.021 494.812 741.021 480.17ZM847.119 517C843.74 517 842.051 515.311 842.051 511.932V412.169C842.051 409.635 842.642 407.326 843.825 405.243L850.329 393.839C851.568 391.699 853.032 390.629 854.722 390.629H860.635C864.014 390.629 865.703 392.318 865.703 395.697V511.932C865.703 515.311 864.014 517 860.635 517H847.119ZM883.949 472.652C883.949 458.404 887.497 447.169 894.593 438.947C901.745 430.725 911.825 426.614 924.834 426.614C939.926 426.614 951.133 430.5 958.454 438.271C965.775 446.043 969.436 458.545 969.436 475.777C969.436 479.156 967.859 480.846 964.705 480.846H908.953C909.854 490.194 912.163 496.079 915.88 498.5C919.597 500.922 923.905 502.133 928.804 502.133C933.478 502.133 937.054 501.513 939.532 500.274C942.01 499.035 944.094 497.346 945.783 495.206C947.698 492.728 950.063 492.334 952.879 494.023L961.326 499.176C964.649 501.204 965.127 503.625 962.762 506.441C959.327 510.552 955.3 513.621 950.683 515.648C946.065 517.676 938.772 518.689 928.804 518.689C912.642 518.689 901.125 514.578 894.255 506.356C887.384 498.134 883.949 486.9 883.949 472.652ZM909.038 463.951H945.783C945.783 457.869 944.263 452.913 941.222 449.084C938.181 445.198 933.338 443.255 926.692 443.255C921.399 443.255 917.203 445.114 914.106 448.831C911.009 452.491 909.319 457.531 909.038 463.951Z" fill="black"/>
<path d="M174.255 590.607C172.987 590.607 172.354 590.07 172.354 588.996V585.773C172.354 584.699 172.987 584.162 174.255 584.162H176.446V583.034C176.446 582.067 176.672 581.187 177.123 580.392L179.604 576.041C180.077 575.225 180.636 574.816 181.28 574.816H183.536C184.825 574.816 185.47 575.461 185.47 576.75V584.162H190.69C191.958 584.162 192.592 584.699 192.592 585.773V588.996C192.592 590.07 191.958 590.607 190.69 590.607H185.47V606.592C185.47 608.783 185.62 610.362 185.921 611.329C186.243 612.274 187.06 612.747 188.37 612.747C189.036 612.747 189.788 612.64 190.626 612.425C191.464 612.188 192.119 611.963 192.592 611.748C193.344 611.404 193.838 611.651 194.074 612.489L195.041 616.163C195.234 616.894 194.955 617.431 194.203 617.774C193.494 618.097 192.517 618.387 191.271 618.645C190.046 618.924 188.811 619.063 187.564 619.063C184.492 619.063 181.871 618.43 179.701 617.162C177.531 615.895 176.446 613.284 176.446 609.331V590.607H174.255ZM199.295 601.081C199.295 595.646 200.648 591.359 203.355 588.223C206.084 585.086 209.93 583.518 214.893 583.518C220.65 583.518 224.926 585 227.719 587.965C230.512 590.93 231.908 595.699 231.908 602.273C231.908 603.562 231.307 604.207 230.104 604.207H208.834C209.178 607.773 210.059 610.019 211.477 610.942C212.895 611.866 214.538 612.328 216.407 612.328C218.19 612.328 219.555 612.092 220.5 611.619C221.445 611.146 222.24 610.502 222.885 609.686C223.615 608.74 224.518 608.59 225.592 609.234L228.814 611.2C230.082 611.974 230.265 612.897 229.362 613.972C228.052 615.54 226.516 616.711 224.754 617.484C222.992 618.258 220.21 618.645 216.407 618.645C210.241 618.645 205.848 617.076 203.227 613.939C200.605 610.803 199.295 606.517 199.295 601.081ZM208.866 597.762H222.885C222.885 595.441 222.305 593.551 221.145 592.09C219.984 590.607 218.137 589.866 215.602 589.866C213.582 589.866 211.981 590.575 210.8 591.993C209.618 593.39 208.974 595.312 208.866 597.762ZM237.129 601.081C237.129 595.603 238.504 591.306 241.254 588.19C244.004 585.075 248.226 583.518 253.919 583.518C257.249 583.518 259.838 583.958 261.686 584.839C263.533 585.72 265.016 587.009 266.133 588.706C266.799 589.716 266.691 590.511 265.811 591.091L262.395 593.347C261.428 593.991 260.579 593.744 259.849 592.605C259.483 592.047 258.785 591.445 257.754 590.801C256.723 590.156 255.444 589.834 253.919 589.834C251.491 589.834 249.676 590.693 248.473 592.412C247.27 594.109 246.668 596.999 246.668 601.081C246.668 605.163 247.27 608.063 248.473 609.782C249.676 611.479 251.491 612.328 253.919 612.328C255.659 612.328 257.066 611.963 258.141 611.232C259.215 610.502 260.225 609.557 261.17 608.396C261.986 607.408 262.846 607.269 263.748 607.978L266.745 610.33C267.647 611.039 267.701 611.984 266.906 613.166C266.068 614.412 264.64 615.637 262.62 616.84C260.622 618.043 257.722 618.645 253.919 618.645C248.226 618.645 244.004 617.087 241.254 613.972C238.504 610.856 237.129 606.56 237.129 601.081ZM275.865 618C274.576 618 273.932 617.355 273.932 616.066V572.367C273.932 571.078 274.576 570.434 275.865 570.434H281.021C282.311 570.434 282.955 571.078 282.955 572.367V585.387C282.955 586.246 282.912 587.105 282.826 587.965H283.02C284.008 586.268 285.265 585.107 286.79 584.484C288.315 583.84 290.152 583.518 292.301 583.518C295.652 583.518 298.424 584.57 300.615 586.676C302.807 588.781 303.902 592.627 303.902 598.213V616.066C303.902 617.355 303.258 618 301.969 618H296.812C295.523 618 294.879 617.355 294.879 616.066V600.533C294.879 595.85 294.557 592.896 293.912 591.671C293.268 590.446 291.882 589.834 289.755 589.834C287.499 589.834 285.802 590.715 284.663 592.477C283.524 594.217 282.955 597.848 282.955 603.369V616.066C282.955 617.355 282.311 618 281.021 618H275.865ZM314.537 618C313.248 618 312.604 617.355 312.604 616.066V586.096C312.604 584.807 313.248 584.162 314.537 584.162H319.629C320.918 584.162 321.562 584.807 321.562 586.096V587.965H321.691C322.68 586.268 323.937 585.107 325.462 584.484C326.987 583.84 328.824 583.518 330.973 583.518C334.324 583.518 337.096 584.57 339.287 586.676C341.479 588.781 342.574 592.627 342.574 598.213V616.066C342.574 617.355 341.93 618 340.641 618H335.484C334.195 618 333.551 617.355 333.551 616.066V600.533C333.551 595.85 333.229 592.896 332.584 591.671C331.939 590.446 330.554 589.834 328.427 589.834C326.171 589.834 324.474 590.715 323.335 592.477C322.196 594.217 321.627 597.848 321.627 603.369V616.066C321.627 617.355 320.982 618 319.693 618H314.537ZM353.209 618C351.92 618 351.275 617.355 351.275 616.066V586.096C351.275 584.807 351.92 584.162 353.209 584.162H358.365C359.654 584.162 360.299 584.807 360.299 586.096V616.066C360.299 617.355 359.654 618 358.365 618H353.209ZM353.209 579.199C351.92 579.199 351.275 578.555 351.275 577.266V573.141C351.275 571.852 351.92 571.207 353.209 571.207H358.365C359.654 571.207 360.299 571.852 360.299 573.141V577.266C360.299 578.555 359.654 579.199 358.365 579.199H353.209ZM370.998 618C369.709 618 369.064 617.355 369.064 616.066V572.367C369.064 571.078 369.709 570.434 370.998 570.434H376.154C377.443 570.434 378.088 571.078 378.088 572.367V596.054C378.088 596.913 378.045 597.772 377.959 598.632H378.088L388.304 585.483C388.991 584.603 389.829 584.162 390.817 584.162H396.103C398.079 584.162 398.412 584.957 397.102 586.547L387.369 598.31L398.648 615.615C399.68 617.205 399.347 618 397.649 618H392.139C391.064 618 390.184 617.441 389.496 616.324L382.181 604.562L378.088 609.492V616.066C378.088 617.355 377.443 618 376.154 618H370.998ZM426.814 607.816C426.814 604.637 427.62 601.833 429.231 599.405C430.843 596.978 433.593 594.367 437.481 591.574C435.956 589.855 434.646 588.244 433.55 586.74C432.454 585.215 431.906 583.131 431.906 580.488C431.906 577.91 432.916 575.633 434.936 573.656C436.977 571.68 440.328 570.691 444.99 570.691C447.869 570.691 450.544 571.422 453.015 572.883C455.507 574.344 456.753 576.868 456.753 580.456C456.753 583.12 456.194 585.397 455.077 587.288C453.96 589.157 452.091 591.08 449.47 593.057L457.204 603.176C458.171 602.273 459.052 601.242 459.847 600.082C460.642 598.922 461.179 598.02 461.458 597.375C462.06 595.979 462.994 595.656 464.262 596.408L467.678 598.471C468.322 598.814 468.387 599.62 467.871 600.888C467.27 602.37 466.507 603.777 465.583 605.109C464.659 606.441 463.392 607.806 461.78 609.202L466.808 615.873C467.882 617.291 467.549 618 465.809 618H459.847C458.257 618 457 617.366 456.076 616.099L454.916 614.52C452.768 616.238 450.544 617.431 448.245 618.097C445.946 618.763 443.282 619.096 440.253 619.096C436.364 619.096 433.152 618.193 430.617 616.389C428.082 614.584 426.814 611.727 426.814 607.816ZM436.482 607.43C436.482 608.869 436.987 610.008 437.997 610.846C439.028 611.662 440.221 612.07 441.574 612.07C443.379 612.07 444.937 611.834 446.247 611.361C447.558 610.889 448.965 610.008 450.469 608.719L442.219 597.891C440.156 599.566 438.685 601.049 437.804 602.338C436.923 603.627 436.482 605.324 436.482 607.43ZM440.607 580.843C440.607 582.347 441.005 583.571 441.8 584.517C442.616 585.44 443.508 586.386 444.475 587.353C445.828 586.128 446.763 585.193 447.278 584.549C447.794 583.883 448.052 582.841 448.052 581.423C448.052 580.349 447.708 579.532 447.021 578.974C446.354 578.394 445.441 578.104 444.281 578.104C443.057 578.104 442.133 578.458 441.51 579.167C440.908 579.854 440.607 580.413 440.607 580.843ZM498.486 618C497.197 618 496.553 617.355 496.553 616.066V572.367C496.553 571.078 497.197 570.434 498.486 570.434H503.643C504.932 570.434 505.576 571.078 505.576 572.367V596.054C505.576 596.913 505.533 597.772 505.447 598.632H505.576L515.792 585.483C516.479 584.603 517.317 584.162 518.306 584.162H523.591C525.567 584.162 525.9 584.957 524.59 586.547L514.857 598.31L526.137 615.615C527.168 617.205 526.835 618 525.138 618H519.627C518.553 618 517.672 617.441 516.984 616.324L509.669 604.562L505.576 609.492V616.066C505.576 617.355 504.932 618 503.643 618H498.486ZM530.713 601.081C530.713 595.603 532.12 591.306 534.935 588.19C537.771 585.075 541.981 583.518 547.567 583.518C553.153 583.518 557.354 585.075 560.168 588.19C563.004 591.306 564.422 595.603 564.422 601.081C564.422 606.56 563.004 610.856 560.168 613.972C557.354 617.087 553.153 618.645 547.567 618.645C541.981 618.645 537.771 617.087 534.935 613.972C532.12 610.856 530.713 606.56 530.713 601.081ZM540.252 601.081C540.252 605.163 540.875 608.063 542.121 609.782C543.389 611.479 545.204 612.328 547.567 612.328C549.931 612.328 551.735 611.479 552.981 609.782C554.249 608.063 554.883 605.163 554.883 601.081C554.883 596.999 554.249 594.109 552.981 592.412C551.735 590.693 549.931 589.834 547.567 589.834C545.204 589.834 543.389 590.693 542.121 592.412C540.875 594.109 540.252 596.999 540.252 601.081ZM573.316 618C572.027 618 571.383 617.355 571.383 616.066V586.096C571.383 584.807 572.027 584.162 573.316 584.162H578.408C579.697 584.162 580.342 584.807 580.342 586.096V587.965H580.471C581.094 586.59 582.146 585.505 583.629 584.71C585.111 583.915 586.497 583.518 587.786 583.518C590.364 583.518 592.362 584.119 593.78 585.322C595.22 586.525 596.208 587.868 596.745 589.351H596.874C598.743 586.923 600.43 585.344 601.934 584.613C603.459 583.883 605.403 583.518 607.767 583.518C610.946 583.518 613.621 584.57 615.791 586.676C617.982 588.781 619.078 592.627 619.078 598.213V616.066C619.078 617.355 618.434 618 617.145 618H611.988C610.699 618 610.055 617.355 610.055 616.066V600.533C610.055 595.85 609.732 592.896 609.088 591.671C608.465 590.446 607.348 589.834 605.736 589.834C604.232 589.834 602.857 590.715 601.611 592.477C600.365 594.238 599.742 597.869 599.742 603.369V616.066C599.742 617.355 599.098 618 597.809 618H592.652C591.363 618 590.719 617.355 590.719 616.066V600.533C590.719 595.85 590.396 592.896 589.752 591.671C589.129 590.446 588.012 589.834 586.4 589.834C584.896 589.834 583.521 590.715 582.275 592.477C581.029 594.217 580.406 597.848 580.406 603.369V616.066C580.406 617.355 579.762 618 578.473 618H573.316ZM629.713 618C628.424 618 627.779 617.355 627.779 616.066V586.096C627.779 584.807 628.424 584.162 629.713 584.162H634.805C636.094 584.162 636.738 584.807 636.738 586.096V587.965H636.867C637.49 586.59 638.543 585.505 640.025 584.71C641.508 583.915 642.894 583.518 644.183 583.518C646.761 583.518 648.759 584.119 650.177 585.322C651.616 586.525 652.604 587.868 653.142 589.351H653.271C655.14 586.923 656.826 585.344 658.33 584.613C659.855 583.883 661.8 583.518 664.163 583.518C667.343 583.518 670.018 584.57 672.188 586.676C674.379 588.781 675.475 592.627 675.475 598.213V616.066C675.475 617.355 674.83 618 673.541 618H668.385C667.096 618 666.451 617.355 666.451 616.066V600.533C666.451 595.85 666.129 592.896 665.484 591.671C664.861 590.446 663.744 589.834 662.133 589.834C660.629 589.834 659.254 590.715 658.008 592.477C656.762 594.238 656.139 597.869 656.139 603.369V616.066C656.139 617.355 655.494 618 654.205 618H649.049C647.76 618 647.115 617.355 647.115 616.066V600.533C647.115 595.85 646.793 592.896 646.148 591.671C645.525 590.446 644.408 589.834 642.797 589.834C641.293 589.834 639.918 590.715 638.672 592.477C637.426 594.217 636.803 597.848 636.803 603.369V616.066C636.803 617.355 636.158 618 634.869 618H629.713ZM684.111 603.949V586.096C684.111 584.807 684.756 584.162 686.045 584.162H691.201C692.49 584.162 693.135 584.807 693.135 586.096V601.629C693.135 606.312 693.457 609.267 694.102 610.491C694.746 611.716 696.1 612.328 698.162 612.328C700.354 612.328 702.019 611.458 703.157 609.718C704.296 607.956 704.865 604.314 704.865 598.793V586.096C704.865 584.807 705.51 584.162 706.799 584.162H711.955C713.244 584.162 713.889 584.807 713.889 586.096V616.066C713.889 617.355 713.244 618 711.955 618H706.863C705.574 618 704.93 617.355 704.93 616.066V614.197H704.801C703.812 615.895 702.556 617.065 701.03 617.71C699.505 618.333 697.7 618.645 695.616 618.645C692.329 618.645 689.59 617.592 687.398 615.486C685.207 613.381 684.111 609.535 684.111 603.949ZM724.588 618C723.299 618 722.654 617.355 722.654 616.066V586.096C722.654 584.807 723.299 584.162 724.588 584.162H729.68C730.969 584.162 731.613 584.807 731.613 586.096V587.965H731.742C732.73 586.268 733.987 585.107 735.513 584.484C737.038 583.84 738.875 583.518 741.023 583.518C744.375 583.518 747.146 584.57 749.338 586.676C751.529 588.781 752.625 592.627 752.625 598.213V616.066C752.625 617.355 751.98 618 750.691 618H745.535C744.246 618 743.602 617.355 743.602 616.066V600.533C743.602 595.85 743.279 592.896 742.635 591.671C741.99 590.446 740.604 589.834 738.478 589.834C736.222 589.834 734.524 590.715 733.386 592.477C732.247 594.217 731.678 597.848 731.678 603.369V616.066C731.678 617.355 731.033 618 729.744 618H724.588ZM763.26 618C761.971 618 761.326 617.355 761.326 616.066V586.096C761.326 584.807 761.971 584.162 763.26 584.162H768.416C769.705 584.162 770.35 584.807 770.35 586.096V616.066C770.35 617.355 769.705 618 768.416 618H763.26ZM763.26 579.199C761.971 579.199 761.326 578.555 761.326 577.266V573.141C761.326 571.852 761.971 571.207 763.26 571.207H768.416C769.705 571.207 770.35 571.852 770.35 573.141V577.266C770.35 578.555 769.705 579.199 768.416 579.199H763.26ZM781.049 618C779.76 618 779.115 617.355 779.115 616.066V572.367C779.115 571.078 779.76 570.434 781.049 570.434H786.205C787.494 570.434 788.139 571.078 788.139 572.367V596.054C788.139 596.913 788.096 597.772 788.01 598.632H788.139L798.354 585.483C799.042 584.603 799.88 584.162 800.868 584.162H806.153C808.13 584.162 808.463 584.957 807.152 586.547L797.42 598.31L808.699 615.615C809.73 617.205 809.397 618 807.7 618H802.189C801.115 618 800.234 617.441 799.547 616.324L792.231 604.562L788.139 609.492V616.066C788.139 617.355 787.494 618 786.205 618H781.049ZM813.275 608.977C813.275 604.68 815.327 601.564 819.431 599.631C823.534 597.697 828.218 596.666 833.481 596.537V595.248C833.481 593.271 832.987 591.875 831.999 591.059C831.011 590.242 829.636 589.834 827.874 589.834C826.628 589.834 825.521 590.017 824.555 590.382C823.609 590.726 822.782 591.134 822.073 591.606C821.386 592.058 820.763 592.52 820.204 592.992C819.216 593.852 818.399 593.895 817.755 593.121L815.08 589.834C814.414 589.018 814.575 588.18 815.563 587.32C816.315 586.654 817.186 586.074 818.174 585.58C819.184 585.086 820.516 584.624 822.17 584.194C823.824 583.743 825.973 583.518 828.615 583.518C833.084 583.518 836.511 584.549 838.896 586.611C841.302 588.674 842.505 591.714 842.505 595.731V616.066C842.505 617.355 841.86 618 840.571 618H835.286C834.126 618 833.546 617.355 833.546 616.066V615.1H833.481C832.214 616.324 830.688 617.227 828.905 617.807C827.144 618.365 825.521 618.645 824.039 618.645C820.516 618.645 817.841 617.785 816.015 616.066C814.188 614.326 813.275 611.963 813.275 608.977ZM822.814 608.783C822.814 609.535 822.965 610.19 823.266 610.749C823.566 611.286 824.039 611.684 824.684 611.941C825.328 612.199 826.048 612.328 826.843 612.328C827.938 612.328 829.002 612.178 830.033 611.877C831.064 611.576 832.214 610.867 833.481 609.75V602.757C829.872 603.165 827.455 603.691 826.23 604.336C825.006 604.98 824.125 605.646 823.588 606.334C823.072 607.021 822.814 607.838 822.814 608.783ZM850.175 590.607C848.907 590.607 848.273 590.07 848.273 588.996V585.773C848.273 584.699 848.907 584.162 850.175 584.162H852.366V583.034C852.366 582.067 852.592 581.187 853.043 580.392L855.524 576.041C855.997 575.225 856.556 574.816 857.2 574.816H859.456C860.745 574.816 861.39 575.461 861.39 576.75V584.162H866.61C867.878 584.162 868.512 584.699 868.512 585.773V588.996C868.512 590.07 867.878 590.607 866.61 590.607H861.39V606.592C861.39 608.783 861.54 610.362 861.841 611.329C862.163 612.274 862.979 612.747 864.29 612.747C864.956 612.747 865.708 612.64 866.546 612.425C867.384 612.188 868.039 611.963 868.512 611.748C869.264 611.404 869.758 611.651 869.994 612.489L870.961 616.163C871.154 616.894 870.875 617.431 870.123 617.774C869.414 618.097 868.437 618.387 867.19 618.645C865.966 618.924 864.73 619.063 863.484 619.063C860.412 619.063 857.791 618.43 855.621 617.162C853.451 615.895 852.366 613.284 852.366 609.331V590.607H850.175ZM878.953 618C877.664 618 877.02 617.355 877.02 616.066V586.096C877.02 584.807 877.664 584.162 878.953 584.162H884.109C885.398 584.162 886.043 584.807 886.043 586.096V616.066C886.043 617.355 885.398 618 884.109 618H878.953ZM878.953 579.199C877.664 579.199 877.02 578.555 877.02 577.266V573.141C877.02 571.852 877.664 571.207 878.953 571.207H884.109C885.398 571.207 886.043 571.852 886.043 573.141V577.266C886.043 578.555 885.398 579.199 884.109 579.199H878.953ZM893.004 601.081C893.004 595.603 894.411 591.306 897.226 588.19C900.062 585.075 904.272 583.518 909.858 583.518C915.444 583.518 919.645 585.075 922.459 588.19C925.295 591.306 926.713 595.603 926.713 601.081C926.713 606.56 925.295 610.856 922.459 613.972C919.645 617.087 915.444 618.645 909.858 618.645C904.272 618.645 900.062 617.087 897.226 613.972C894.411 610.856 893.004 606.56 893.004 601.081ZM902.543 601.081C902.543 605.163 903.166 608.063 904.412 609.782C905.68 611.479 907.495 612.328 909.858 612.328C912.222 612.328 914.026 611.479 915.272 609.782C916.54 608.063 917.174 605.163 917.174 601.081C917.174 596.999 916.54 594.109 915.272 592.412C914.026 590.693 912.222 589.834 909.858 589.834C907.495 589.834 905.68 590.693 904.412 592.412C903.166 594.109 902.543 596.999 902.543 601.081ZM935.607 618C934.318 618 933.674 617.355 933.674 616.066V586.096C933.674 584.807 934.318 584.162 935.607 584.162H940.699C941.988 584.162 942.633 584.807 942.633 586.096V587.965H942.762C943.75 586.268 945.007 585.107 946.532 584.484C948.058 583.84 949.895 583.518 952.043 583.518C955.395 583.518 958.166 584.57 960.357 586.676C962.549 588.781 963.645 592.627 963.645 598.213V616.066C963.645 617.355 963 618 961.711 618H956.555C955.266 618 954.621 617.355 954.621 616.066V600.533C954.621 595.85 954.299 592.896 953.654 591.671C953.01 590.446 951.624 589.834 949.497 589.834C947.241 589.834 945.544 590.715 944.405 592.477C943.267 594.217 942.697 597.848 942.697 603.369V616.066C942.697 617.355 942.053 618 940.764 618H935.607Z" fill="black"/>
<circle cx="459.141" cy="218.25" r="72.2497" stroke="#094783" stroke-width="30"/>
<circle cx="459.141" cy="806.678" r="72.2497" stroke="#094783" stroke-width="30"/>
<path d="M375.95 218.25C-35.9504 257.817 12.7473 795.518 375.95 806.678" stroke="#094783" stroke-width="30"/>
</svg>
